<svg xmlns="http://www.w3.org/2000/svg" width="1600.000000pt" height="1100.000000pt" version="1.0" viewBox="0 0 1600.000000 1100.000000"><path d="M0 550v550h1600V0H0v550zM1046.8 27.4c3 .8 7.9 3 10.9 4.8 7.2 4.3 27.4 23.6 32.4 30.9 2.1 3.2 10.6 19.4 18.8 36.1 15.7 31.8 17.6 37.1 15.9 45.2-.9 4.4-5.2 10.6-7.2 10.6-1.9 0-4.2-3-5.6-7.3-2.5-7.9-11.1-14.5-24-18.5-11.5-3.6-22.1-7.8-44.5-17.7-40.6-18-42.2-18.3-64-13.8-13.5 2.8-25.4.6-31.7-5.7-3.2-3.1-3.8-4.4-3.8-7.9 0-15.3 29.7-40.6 62-52.8 13.7-5.2 30-6.7 40.8-3.9zM415.4 63.9c12.7 10.1 20.1 29.4 20.5 53.4.2 9.1-.1 11.5-1.8 15.1-1.2 2.3-10.8 13.7-21.5 25.3-19.9 21.7-23.6 26.5-23.6 30.2 0 1.6.6 2.1 2.6 2.1 6.3 0 37.2-9 59.9-17.5 32.6-12.2 42.9-13.2 59.1-5.5 12 5.8 23.5 20.5 24.6 31.5.6 5.4-1.7 11.9-5.3 14.9-4.3 3.7-11.5 6-44.9 14.6-16.8 4.3-35.2 9.5-41 11.5-9.9 3.4-52.5 16.6-63.7 19.8-9.5 2.7-9.1-1.5.7-7 7-4 14-8.7 14-9.6 0-.8-5.2-.2-15.5 2-15.6 3.2-18.8 3.4-27.3 2.3-13.1-1.7-18.6-4.3-26.2-11.9-3.6-3.6-8.1-9.3-10-12.6-3.1-5.2-3.5-6.9-3.8-14.1-.5-9.6 1.3-18.3 6.5-32.9 11.4-31.8 27-56 56-86.5 27.3-28.8 32.2-31.8 40.7-25.1zM1103.8 179c10.9 1.2 13.3 2.3 19.1 8.5 12.1 13.1 10.5 24.8-4.5 34.7-3.8 2.5-11.8 7.1-17.8 10.4-6 3.2-12.8 7.7-15.2 9.9-4.2 3.7-4.3 4.2-3.1 6.5.7 1.5 5 4.6 10.2 7.6 10.6 6 14.6 9.7 18 16.4 6.9 13.6 8.1 36.4 2.5 47-4.7 8.9-29 42.4-50.8 70-5 6.3-9.9 13-10.9 14.7-1.7 3.1-1.7 3.4 0 5 1.5 1.5 4.2 1.9 18.3 2.2 31 .6 52.4-2.3 84.9-11.5 11.6-3.3 44.2-14.2 55.5-18.5 10.4-4 41.5-19.6 44.9-22.4 4.6-3.9 6.1-8.1 6.1-16.5 0-6.3.3-7.4 2.6-9.6 3.2-3.3 6.9-2.8 17.4 2.3 13.3 6.4 25.7 22 30.4 38.2 2.1 7.1 2 16.5-.1 22.7-4.9 14.5-42.9 39.5-82.5 54.3l-13.6 5.1h-20.9c-40.6-.1-76.4-1.7-100.3-4.7-21.6-2.7-24.3-2.8-66.5-2.8-59.5.1-64.3 1-107.5 19.8-24.5 10.7-29.8 12.5-39.7 13.3l-8 .7-.6-3.3c-.4-1.8-.7-5.2-.7-7.5 0-8.6 1-10.6 8.9-18.6 9.2-9.2 17.6-13.5 45.6-23.7 23.3-8.5 35.7-13.7 50-21 9.6-4.9 12.3-6.9 20.6-15.2 13.8-13.8 31.9-36.3 31.9-39.7 0-2.2-1.8-1.6-10.9 3.7-11.9 6.8-25.1 11-36.6 11.7-10.5.7-13.7.1-16.5-2.7-4-4-2.3-10.7 8.2-31.5 13.8-27.7 21.7-38.9 43.6-61.6 8.2-8.5 16.3-17.5 18.1-19.9 5.5-7.6 3.8-11.4-5.6-12.6-12.3-1.5-29.6 3-57.9 15.1-9.4 4-19 7.6-21.5 8-5.7.8-12-2.4-16.6-8.4-7.1-9.3-3.4-19.5 13.7-37.5 17.2-18 32.1-27.2 52.1-32.1 9.4-2.3 32.1-5.9 42.4-6.8 9.3-.8 54.8-.6 63.3.3zm-356.5 24.4c7.3 3.5 12 8.1 14.3 14.1 1.5 4.2 1.6 5.4.5 10.9-2.4 11.5-7.7 18.7-35.3 47.7-16.9 17.7-25.4 28-29.3 35-5.1 9.4-1.9 12.9 16.6 18.9 14 4.5 20.4 8.3 22.5 13.6 1.1 2.7 1 3.7-1.2 8.4-1.4 3-9.4 14.6-17.8 25.9-23.7 31.9-24.8 33.8-20.7 36.1 4.6 2.4 34.9-17 63.6-40.5 20-16.4 62.4-56.7 74.2-70.5 7-8.2 7.1-8.3 3.1-16.7-2.6-5.6-2-6.9 4.8-10.2 3.4-1.7 7.1-2.6 12.1-2.9 9.6-.6 16 1.6 20.9 7 3.4 3.9 3.6 4.4 3.1 9.2-.3 2.9-2.2 9.7-4.2 15.1-3 8.2-20.1 48.9-26.1 62.3-7.5 16.8-20 53.5-23.9 69.7-1.4 6-3 12.8-3.5 15-.6 2.2-2.1 10.1-3.6 17.5-4.4 23.5-6.4 30-9 30-2 0-2.7-11.7-2-33 .7-19.8.9-22.2 2.7-32 2.5-13.2 14.7-48 26-73.7 5.8-13.2 6.3-14.6 9-25.6 2.1-8.5 2.4-13.7.9-13.7-1.3 0-6.2 4.3-20 17.4-11.4 10.8-61.8 55.3-88 77.7-7.4 6.3-22.7 18.7-34 27.5-22.2 17.2-31.3 24.8-43.2 36-12.4 11.8-19.5 14-27.2 8.8l-3.9-2.7.6-14.6c.3-8 1.3-18.2 2.2-22.6 3-14 5.1-17.3 20.3-32.9 22.5-23.2 40.2-44.7 45.9-55.9 3.8-7.6 3.5-7.8-11.9-7.5-15.8.4-17.3-.2-23.7-8.7-9-11.9-11.3-21.8-7.3-30.6 2-4.5 19.1-27 38.2-50.3 5.8-7 11.7-14.6 13.3-16.9 3-4.6 3.6-8.7 1.1-8.7s-22.9 20.6-33.6 34c-17.6 22-19.1 23.8-22.2 25.6-4.7 2.8-14 2.5-19.5-.6-6.6-3.7-8.6-7.8-8.5-17.5 0-8.4 1.8-15.2 6.2-23.9 8.7-17.4 46.1-40.5 84.4-52.1 11.7-3.5 24.6-3.2 33.1.9zM333 280.9c0 4.1-9.6 10-53.5 32.8-13.7 7.1-31.3 16.7-39 21.3-21.8 12.9-23.8 14-26.7 14-5.4 0-3.2-2.8 11.2-14 23.9-18.7 55.4-36 95-52.1 10.8-4.4 13-4.7 13-2zm198.5 1.6c10.4 2.8 24 11.8 28.4 18.9 3.4 5.5 4.5 12.7 3.2 21.9-1.9 13.1-6 35.2-9.1 48.2-18.2 76.5-23.7 96.2-40.9 148-17.8 53.5-23.2 67.7-34.5 91-8.9 18.3-15.8 27.6-30.9 42.1-24 23.1-55.6 43.1-81.7 51.8-13 4.3-54.6 11.3-73.7 12.3-9 .5-10.3.4-10.9-1.1-.8-2.2 1.3-4.5 15.6-16.6 23.4-19.8 37.8-37.1 65.8-78.7 32.9-49.1 45.4-73 62-118.8 7.6-20.7 16.5-42.3 30.6-73.9 9.5-21.1 13.9-31.7 18.1-43.1 2-5.5 4-11.1 4.6-12.5 1.6-4.3 3.5-12.4 3.4-15 0-1.8-.6-2.6-2.2-2.8-3.8-.5-22.6 6.4-56.3 20.8-17.9 7.6-40.4 17-50 20.8-49.9 20-73 30-134.5 58.4-81.8 37.8-116 50.8-134.1 50.8-5.1 0-6.8-.5-10.7-3.1-11.6-7.6-15.7-15.4-15.7-29.4 0-6.3.1-6.5 5.9-13.7 7.2-8.9 26.9-28.4 27.8-27.5.3.4-2.4 6.6-6.1 13.8-7.5 14.6-8.8 20.1-6.3 26.1 1.9 4.6 6.6 7.2 11.2 6.4 4.1-.8 19-8.1 35.5-17.3 53.3-29.8 152.9-79.9 190.5-95.8 8.8-3.7 37.8-16.1 64.5-27.5 47.7-20.4 66.1-27.7 81-32 10.6-3.1 14.1-5.1 22.3-12.9 12.2-11.5 15.3-12.7 27.2-9.6zm861 115.3c7.7 3.6 15.6 10.8 18.5 16.6 1.7 3.6 2 6.2 2 17.8 0 15.2-.6 17.4-6.7 25.5-6.8 9-9.6 10.8-31.3 19.6-21.4 8.7-27 10.1-27 6.8 0-.5 6-5.8 13.3-11.9 12.8-10.6 21.7-19.2 21.7-21 0-1.5-5-8.5-9.5-13.2-8.2-8.7-14.5-20.4-14.5-27 0-3.9 5.9-9.9 13.7-14 7-3.6 10.5-3.5 19.8.8zM750.3 598.2c10.3 4 25.8 16.8 28.6 23.6 1.9 4.4.7 8.2-2.4 8.2-3.5 0-31-14.1-37.7-19.4-7.9-6.3-8.9-12-2.3-14.6 2.5-1.1 7.6-.3 13.8 2.2zm164.7 2.3c12.4 6.3 25 19.1 25.3 25.7.2 3.2.1 3.3-3.8 3.1-5.7-.3-33.5-14.4-39.2-19.8-4.5-4.4-5.6-8.4-3-11.7 2.5-3.3 11-2.2 20.7 2.7zm-222.5 7.1c7.2 3.6 9.9 6.9 8.9 10.9-.4 1.5-3.7 6-7.4 9.9-7.4 7.8-17.3 20.4-19.6 24.8-1.9 3.6-1.3 4.4 3.7 6 5 1.5 8.3 5.2 6.9 7.9-1.5 2.7-12.1 8.7-32 18-24.8 11.7-28 11.3-28-2.9 0-7.2 1.6-11.1 5.9-14.1 4.8-3.4 23.1-28.1 23.1-31.1 0-2.3-8-.2-17.7 4.5-9.1 4.5-9.3 4.6-12.2 10.8-3.8 8-7.8 23.9-8.4 33.7-.8 12.2-3.2 15.9-8.2 12.6-14.2-9.3-9.3-64.1 7-78.4 3.9-3.5 4.9-3.8 14.7-4.7 4-.3 10.3-1.9 15.6-4 20.4-7.9 37-9.2 47.7-3.9zm866.4 2.2c5.4 2.7 7.3 6 7.9 14 .6 8.9-1 17.1-6.6 34.7-6 19.1-9.2 31.4-16.1 62.5-3.3 14.6-6.6 28.3-7.5 30.4-.9 2.1-1.6 6.6-1.6 10 0 3.5-.5 6.7-1.2 7.4-1.8 1.8-4.3 1.5-6.3-.9-1.7-1.7-1.9-3.8-2-16.2 0-28.2 2.3-43 13-80.5 7.9-28 8.6-32.2 8.3-48.4-.2-11.4 0-14 1.2-14.9 1.8-1.2 6.3-.4 10.9 1.9zm-219.4 1.1c6.6 3 9 6.4 8.9 12.4-.1 6.2-2.1 10.5-11 23.4-3.5 5.1-6 9.4-5.6 9.7.4.2 4.5 1.9 9.2 3.6 7.4 2.9 9.4 4.2 15.5 10.4 3.9 3.9 7.7 8.4 8.5 9.9 2.8 5.6-2.2 8.2-10.3 5.3-2.3-.8-6.2-1.7-8.7-2.1-6.2-.8-11.8-3.7-18.5-9.6-5.3-4.6-5.9-4.9-7.9-3.6-3.5 2.3-11.1 12.3-16.1 21.3-6.7 11.9-10.8 14.9-14 10-3.2-4.8 1.5-21.9 11.6-41.9 3.2-6.4 5.9-12 5.9-12.3 0-1.3-5.7.9-10.3 3.8-3.9 2.5-5.5 3-8.7 2.5-5.5-.7-14.7-5.6-18.2-9.6-2.5-2.9-2.9-4-2.5-7.2.7-5.2 3.1-8.2 10.7-13.3 9.5-6.3 20.1-10.3 37.5-13.9 1.1-.3 6.1-.5 11-.6 6.8 0 10 .4 13 1.8zM998 624.8l6.3 5.6-.6 18.1c-.4 10.9-1.3 20.8-2.3 25-2.9 12.8-2.9 16 0 18.9 1.7 1.8 3.6 2.6 5.9 2.6 9.6 0 19.7 6.2 23.6 14.6 4.2 8.9-.4 14.6-13.7 16.9-12.3 2.2-28.8 8.8-32.2 13-.8 1-5.4 4.4-10.3 7.7-14.1 9.5-13.2 11.2 5.3 10.4 6.9-.4 19.9-1.4 28.9-2.3l16.4-1.6 2.9 3.2c4.4 5 3.9 9.5-2 17.3l-4.7 6.3-17.5.7c-9.6.4-27.7 1.2-40.2 1.8-25.6 1.2-26.9 1-32.6-5.4-7.4-8.4-4.1-13.2 28.4-41.2 12.8-11 20.6-18.4 21-19.9.4-1.8-.3-3.9-2.7-7.7l-3.4-5.3.1-17c0-13.8.6-20 2.8-32.5 3.2-18.6 3.3-18.9 4.1-26.5.8-7.9 1.3-9.3 3.3-9.7 3.1-.7 7 1.3 13.2 7zm-164.6-3.7c2.6 1.7 5.8 4.6 7.1 6.3 2.6 3.4 4.4 12 3.9 18.4-.1 2-.5 7.3-.8 11.7-.4 4.4-1.3 11.6-2.1 15.9-2 10.4-2.2 18.6-.4 19.6.7.5 5.2 1.8 10 3 4.7 1.2 9.9 2.9 11.5 3.9 4.1 2.5 8.5 9.2 9.1 14 .9 7-3.2 10-18 13.2-5.3 1.1-12.3 3.6-16.7 5.8-9.4 4.7-32 20.7-32 22.6 0 .8 1.2 1.8 2.7 2.1 3.2.8 31.9-1.1 46.2-3.1 9.2-1.3 10.7-1.3 12.7 0 6.8 4.4 2.6 21.4-6.2 25.1-6.1 2.6-69.4 4.5-82.4 2.6-5.5-.9-9-5.3-9-11.4 0-6 2.2-10 8.6-15.4 14.5-12.1 40.1-34.9 41.8-37.1 1.8-2.3 1.8-2.4-1.9-9.9l-3.8-7.6.6-16.2c.6-14 1.2-20.4 3.2-31.6 1.1-5.8 3.5-25.3 3.5-28.1 0-7.5 4.6-8.9 12.4-3.8zm362.7 1.8c10.4 7.8 15.5 13.9 16.3 19.4 1.1 7.3-1.3 17.7-6 26.2-3.2 5.6-14.8 16.6-20.7 19.4-5.1 2.5-15.6 3.9-23.4 3.1-9.8-1-15-9.1-14-21.5.2-3.7 1.4-8 3-11.1 6.7-13.2 30.8-40.4 35.9-40.4 1.5 0 5.2 2 8.9 4.9zm-404.2 15.6c5.1 2.5 8.1 5.7 8.1 8.6 0 .8-2.2 5.3-5 9.8-2.7 4.5-5 9-5 9.9 0 .9 1.9 5.5 4.3 10.1 3.9 7.8 4.2 8.9 4.1 16.2-.1 6.6-.5 8.8-3.2 14.2-8.7 17.5-30.9 30.6-52.2 30.7-7.6 0-12-3-13.9-9.8-2-6.9 5.4-22.8 22.7-49 9.9-14.9 11.5-18.2 9-18.2-.7 0-6.7 1.8-13.4 4.1-12.1 4.1-12.1 4.1-15.8 2.4-4.2-2-7.3-6-8.2-10.3-.8-4-.3-4.2 29.1-13.7 13.2-4.2 24.5-7.8 25-8.1 2.3-.8 9.8.7 14.4 3.1zm159.8.1c9.7 5.4 9.9 6.6 3.5 18.6l-5.3 9.9 4.2 9.2c3.3 7.3 4.3 10.7 4.7 16.5.4 6.8.2 7.7-3.2 14.6-7.8 16-28 28.7-47.6 30.3-12.5.9-18.2-3.2-18.4-13.4-.1-5.5 10.8-27.2 23.4-46.7 4.9-7.7 9-14.8 9-15.8 0-2.4-2.2-2-13.6 2.3-4.3 1.6-9.8 3.2-12.2 3.6-3.9.5-4.5.3-7.6-3-3.3-3.6-5.3-8.7-4.2-10.6 1.5-2.3 51.5-18.9 57.5-19 2.2-.1 5.8 1.2 9.8 3.5zm574.2 5.9c1.6 1.4 3.3 3.4 3.6 4.5.6 2-4.5 22.3-10.1 40.2-2 6.2-4.7 14.8-6 19.1-3 9.7-2.9 9.7-6.2 9.7-6.3 0-8.6-4.1-9.7-17.3-.5-5.3-1.1-8-2.1-8.4-.8-.3-5.4.9-10.4 2.6-6.9 2.4-10.8 3.1-16.4 3.1-8.2 0-8.1-.1-13.7 9.4-4.1 7.1-7.1 9.2-21.7 15-12.5 5-24.6 7.9-31.3 7.4-3.8-.3-4.7-.8-7.4-4.6-2.7-4-3-5.1-3-12.6 0-7.4.3-8.9 3.7-15.7 6.1-12.4 27.8-41.5 33.2-44.6 6.1-3.5 13.1.1 24.7 12.5 5.8 6.2 8.2 8.2 10.2 8.2 7.3 0 25.5-10.8 37.5-22.2 8.4-7.9 9.8-8.6 16.9-8.7 4.1-.1 5.8.4 8.2 2.4zm-817.2 49.1c1 2.7-2.1 4.5-14.2 8-6.4 1.9-13.4 4.3-15.4 5.2-4.3 2.1-4.5 3.8-1.1 12.9l2.4 6.3-5.7 11.7c-9.3 19.5-14.7 34.4-18.7 52-1.2 5.1-3 10.3-4 11.5-1.7 2.1-1.9 2.1-4.3.5-5.7-3.7-10.1-18.8-9.2-31.2 1-12.1 3.5-21.9 10-38.5 4.6-11.8 5.2-14 3.6-14-.5 0-5.9 1.8-11.9 4-19.7 7.2-34 9.8-39.3 7-2.2-1.2-4.9-6-4.9-8.8 0-3.2 3.5-5.3 11.1-6.8 4-.8 15.6-4.5 25.8-8.3 29.1-10.8 38.6-12.9 60.4-13 12.6-.1 14.9.1 15.4 1.5zm525.2 2.7c1.9.7 4 2.2 4.8 3.4 1.3 1.9 1.2 2.4-1.4 5.2-2.3 2.6-4.1 3.4-10.8 4.7-4.4.8-10.3 2-13.1 2.5-2.8.5-6 1.6-7 2.3-1.6 1.2-1.7 1.8-.5 6.9 2.9 11.7-2.9 40.4-11.6 57.7-3.1 6.2-4.2 7.5-6.2 7.5-8.4 0-10.4-23.3-4.6-51.4 1.4-6.8 2.4-12.5 2.1-12.8-.9-.9-10.7 1.8-34.6 9.7-12.9 4.3-26.1 8.4-29.2 9.1-5.6 1.2-5.8 1.1-9.3-1.5-4.6-3.6-10.4-11.5-10.5-14.2 0-2.9 4.6-5 14-6.3 7.2-1 12.9-2.6 53.5-15.1 9.4-2.8 21.1-6 26-7 10.6-2.2 33.1-2.6 38.4-.7zm148.4 1.8c2.7 3.3 2.2 7.6-1 9.3-1.6.8-10.2 2.6-19.3 4-17.6 2.9-14.8 1.9-57.5 19.4-14.3 5.8-39.6 15.1-43.4 15.8-2.2.5-3.4-.2-6.8-3.9-5.2-5.6-7.1-11.8-4.9-15.2 1.7-2.6 4.9-3.7 15.9-5.5 3.8-.6 19.5-5.3 35-10.6 44.9-15.1 52.8-16.8 72.2-15.8 6.7.3 8.3.7 9.8 2.5zm-32.3 24.5c2.2 2.1 2.5 3.3 2.4 8.7-.2 10.2-6.4 31.6-16.2 55.9-5.5 13.7-8.6 17.8-11.3 15.1-1.1-1.1-1.3-15.3-.4-21.9 1.4-9.5 4.6-26.3 5.8-30.9 2.9-10.3 5.8-21.1 6.8-24.8 1.6-6.2 7.8-7.2 12.9-2.1zm-141.1 105.5c-.3 8.8-1.2 13.2-9.5 47.4-5.2 21.6-8.1 28.9-16.2 41.3-3 4.5-5.2 8.5-4.9 8.8.3.4 4.3.1 8.8-.5 13.1-1.8 19.5-1.5 22 1 4.4 4.4-.4 11.2-17 24.4-9.9 7.8-12.9 11-11.7 12.2.2.2 3 0 6.2-.6s9.9-1.1 15-1.1c7.5 0 9.3.3 9.8 1.6 1.9 4.8-10.7 16.3-45.4 41.7-19.4 14.2-23 17.7-18 17.7 3.2 0 9.1-2.6 38-16.6 15.1-7.3 28.7-13.6 30.2-13.9 2.3-.6 2.8-.3 3.4 1.8 1.5 6.3-4 13.4-17.1 22.2-11.6 7.7-30.1 15.9-62.3 27.4-22.2 7.9-26 7.1-25-5.4.9-11.1 6.1-17.3 30.9-36.5 12.9-10.1 14.6-11.7 13.5-12.7-1.3-1.3-24.6 6-38.7 12.1-3.3 1.4-3.8 1.4-5.9-.1-2-1.4-2.2-2.2-1.7-6.5.8-6.2 4.9-13.8 9.6-17.6 2-1.5 7.7-5.6 12.6-8.9 9.1-6.1 13.3-9.8 12.3-10.9-.3-.3-6.8 2.1-14.5 5.4-7.6 3.3-15.6 6.5-17.8 7.2-2.2.7-5.7 2.4-7.7 3.7-5.2 3.2-8.8 3-12.3-.7-2.3-2.4-2.9-3.9-2.9-7.8l-.1-4.7 7-3.7c3.9-2 10.8-4.9 15.5-6.3 10.4-3.3 45.2-16.3 46.1-17.3 1.1-1.1 3.9-21.9 3.9-28.5 0-6.9-.3-7-11.3-2.7-4.3 1.6-9 3-10.3 3-4 0-6.1 1.6-9.8 7.5-2.7 4.1-6.6 7.7-16.8 15.3-12.1 9-15 10.6-31.5 17.7-19.2 8.2-21.8 8.7-24.1 4.3-1.1-2.2-1.7-8.1-1.4-14 .1-1.4 2.2-5.3 4.7-8.6s4.5-6.3 4.5-6.7c0-.3-1.2-2.2-2.7-4.2-2.3-2.9-2.7-4.7-3.1-11.6-.5-9.7 1.3-18.4 5.8-28.1 1.6-3.7 3-6.9 3-7.1 0-.3-3.6-4-8-8.3-8.7-8.4-9.7-10.8-6-15.4 3.9-5.1 24-13.9 40.5-17.9 11-2.6 18.9-2.5 24.5.3 5.3 2.8 6.5 4.6 5.6 8.2-.6 2.6-3 5.1-20 21.3-5.3 5.1-16.6 20.7-16.6 23 0 .5-2 3.9-4.3 7.5-2.4 3.6-4.8 7.9-5.4 9.5-2.2 6.1-3.3 10-3.3 11.8 0 1.7.3 1.6 2.6-.6 3.5-3.2 13.7-18.1 21-30.4 7.5-12.7 14.5-19.9 24.9-25.2 13.2-6.7 22.5-9.5 34.8-10.2 12.3-.7 11.5-.2 17.5-10.8 1.8-3.2 4.3-6.5 5.4-7.2 2.6-1.6 9.9-2.8 18.1-3l5.8-.1-.2 7.1zm-279-1.6c10.6 5.6 14.4 10 19.4 22.7 3.2 8 3.3 10.1.6 15.3-5 9.5-11.7 13.9-33.1 21.9-8.2 3-11 3.6-17.7 3.6-8.9 0-15.5-2-17.2-5.2-1.5-2.8-1.3-8.5.6-15.8 2.1-8.1 4.6-12.4 12.4-21.1 7.3-8.1 25.6-24.9 27.2-24.9.6 0 4.1 1.6 7.8 3.5zM545.4 829c3.2 1.1 8.9 4 12.7 6.5 9.9 6.7 15.3 13.8 18.5 24.7 1.5 4.8 1.7 4.9 10.2 9.1 11.7 5.7 12.4 7.3 5.8 15.7l-4.7 6.1 2.6 6.4c2 5.2 2.5 8 2.5 15.5 0 11.3-1.1 14.1-8.4 20.7-13.5 12.4-39.8 24.3-53.5 24.3-5.6 0-12.4-3.2-15.2-7.2-2.7-3.7-3.6-13.2-2-21.1 1.4-6.3 5.6-12.6 16-24 3.5-3.7 5.9-6.7 5.4-6.7-.4 0-4.6.7-9.3 1.5-12.6 2.2-14.3 2-17.6-1.8-1.6-1.8-3.8-5.1-4.8-7.4-3.1-7-1.5-8 29.1-18.4 11.4-3.8 21.4-7.6 22.2-8.4 1.1-1.1.4-1.9-4.5-5.3-6.9-4.6-21.9-19.4-24-23.5-4.1-7.7 5.9-11.3 19-6.7zm722.2.8c8 4.2 16.4 16.3 16.4 23.9 0 4.9-2.7 17.8-4.4 21.2-.9 1.6-1.6 3.4-1.6 3.9s6.2 1.2 13.8 1.5c7.5.3 14.5.9 15.4 1.2 2.3.9 3.1 3.7 3 10.5 0 9.5-1.6 12.1-19.5 33-11.5 13.3-12.1 10.9 5.3 20.9 18 10.5 22.6 15.9 18.4 22-1.5 2.1-2.2 2.3-6.6 1.7-9.1-1.2-33.8-11.1-33.8-13.6 0-.5-.9-1.4-2-2-4.4-2.3-9.8 2.9-21.2 20.5-3.5 5.5-7.3 10.7-8.2 11.5-1.6 1.3-2 1.2-3.7-.9-2.6-3.1-2.4-7.7.6-16.3 4.8-13.7 15-30.1 27.9-44.8 8.4-9.6 16-19.9 15.2-20.7-.3-.3-5.6 1.3-11.8 3.5-23.6 8.7-31.9 8.3-34.9-1.8-1.6-5.3.4-8.2 7.4-10.9 17.3-6.4 21.8-8.5 23.2-10.4 1.7-2.4 2.1-13.1.6-16.9-.5-1.3-3.4-5.5-6.5-9.3-11-13.6-15.7-27.2-10.3-29.5 3.3-1.5 12.8-.5 17.3 1.8zm-1064.9 8.3c6.2 3 8.6 6.4 8 11.6-.2 2.3-3.8 11.3-8.2 20.5-10.3 21.7-11.8 25.3-10.2 26.6.7.6 4.8 1.3 9.2 1.7 12.2.9 17.4 2.3 19.2 5.2 2.7 4.1.4 5.2-13.8 6.4-16 1.3-23.2 3-29.1 7.1-2.6 1.8-2.8 2.5-2.8 8.7v6.7l12.8-.1c12 0 13 .2 18.5 2.8 6.2 3.1 8.2 5.6 7.1 9-.4 1.2-5.8 7.2-12 13.4-10.5 10.3-19.4 21.8-19.4 24.9 0 1.4 5.9 3.4 10.3 3.4 4.2 0 6.7 1.7 6.7 4.6 0 5.9-4.2 9.1-19.5 14.8-5.5 2-13.7 5.5-18.2 7.8-9.4 4.7-12.3 4.6-14.9-.4-.9-1.7-1.6-5.6-1.7-8.8 0-5.1.6-6.9 5.8-16.6 3.2-6 6.3-11.7 6.9-12.6.5-.9.7-2 .3-2.4-1.7-1.7-17.6 4.6-20.9 8.2-2.2 2.6-3.5 7.8-5.3 20.8-2.2 17.2-7.8 22-16 13.9-4.6-4.6-6.8-10.6-6-16.6 1.2-8.6 2.5-13.6 7.7-29.2 4.2-12.5 7.6-19 12-23l3.7-3.4 4.8 1.4c6.2 1.9 5.8 2 8.4-1.6 2.5-3.5 4-10.1 2.8-12-.8-1.4-16.4 5.8-32.4 15-15.1 8.7-26.8 11.2-32.6 7-5.6-4-7.6-11.3-3.9-14.6 1-1 6.8-3.7 12.7-6.1 5.9-2.3 16.2-7.1 22.8-10.5l12-6.2.6-14.5c.4-8 1-15.9 1.3-17.5 1.5-7.3 1.6-9.4.6-10-.6-.3-5.1.6-10.2 2-10.7 3.2-14.8 3-23-1-7.2-3.5-9.9-6.4-10-10.6-.1-2.7.7-4 4.1-7 9.9-8.9 35-18.9 47.1-18.9 7.4 0 10.3 1.4 18.7 9.1l4.3 3.9 10.2-5.1c12.2-6.1 21.4-9.8 24.7-9.9 1.4 0 4.4.9 6.8 2.1zm1327 3c1.5.5 3.1 1.6 3.5 2.2 1.2 1.8-.2 50.1-1.8 62.3-.8 6 .8 6.8 10.9 6.1 4.5-.3 13.4-1.7 19.6-3.1 6.3-1.4 11.5-2.6 11.7-2.6.5 0 2.4 7.3 2.4 9.1 0 1.2-.7 1.5-2.4 1.2-3-.6-7.7 4.1-14.3 14.3-3.6 5.6-5.8 7.9-8.8 9.4-5.5 2.7-13.9 2.6-20.1 0-7-3-8.6-2.5-10.2 3.5-1.6 6-2 28.5-.9 48.5.4 8 .4 17.2.1 20.5-.6 5.4-1.1 6.4-4.8 9.7-3.2 2.9-4.9 3.8-7.7 3.8-3.4 0-3.7-.3-5.2-4.3-3.3-9.2-3.7-11.8-3.9-28.7-.1-15.6.3-22.6 1.7-31 .2-1.4.7-4.5 1-7 .8-5.9 4.4-20.4 9-36 5.9-20 7.7-34.2 4.7-37.2-2.1-2.1-4.9 1.9-9.2 13.1-7.9 20.3-19.2 40.4-27.5 48.7-8.1 8.2-21.6 13.9-44.1 18.8-6.6 1.5-15.6 3.8-20 5.1-11.2 3.5-14.3 3.3-18.7-1-2.1-2-3.8-4.6-3.9-5.8-.8-12.8 3.3-24 17.4-47l7.9-12.9-8.5-8.8c-8.9-9.2-10.6-12.5-8.7-16.6 1.5-3.3 4.7-4.4 17.6-6 6.1-.8 17.1-2.3 24.7-3.5l13.6-2.2 7 2.2c10.6 3.2 13.9 8.4 10.7 16.8-2.4 6.1-8.2 12.4-17.4 18.6-14.2 9.6-31.6 28.1-30.9 32.9.3 2.2.8 2.3 7.3 2.2 8.2-.1 26.6-4.4 34.5-8 3-1.4 7.2-4.2 9.4-6.2 5.8-5.5 15-20.1 22.1-34.7 6-12.4 6.9-15.1 9.6-27.5 3.2-14.7 12.7-22.7 22.6-18.9zm-161.4 5.3c1.5 1.1 3.6 4.1 4.9 7.4 2 5 2.3 7.3 2.2 19.2-.1 15.8-1.4 21.2-11.9 47.5-3.4 8.8-7.2 18.9-8.4 22.3-3.4 10.5-8.1 41.2-8.5 55.6-.3 14-.6 14.6-6.3 14.6s-6.8-3.1-6.8-19.5c.1-38.5 2.4-52.4 14.7-90.5 6.4-20.1 7.8-30.4 5.5-42.1-2.4-11.8-2.2-13.5 1.1-15.4 3.3-1.9 9.8-1.4 13.5.9zM823.4 848c4.6 5.5 5 9.3 2.1 19.5-1.4 4.9-3.3 12.5-4.3 16.8-1.9 8.7-1.2 10.3 3.8 9.2 6.6-1.3 27.7-1.7 29.8-.6 4.4 2.3 2.7 6.5-6.7 16.5-7.9 8.4-15.5 13.4-24.7 16.1-9 2.8-9 2.8-9.9 11-1.2 10.5-3.2 13.3-8 11.5-3.8-1.5-4.6-6.7-4.6-34 0-22.1.2-23.5 6-43.5 2.1-7.2 4.3-14.8 4.9-17 1.3-4.7 4.5-8.5 7.2-8.5 1 0 3 1.4 4.4 3zm-445.1 5.4c3.4 3.2 4.8 9 5.2 21.6.4 10.9.3 11.4-7.9 41.5-2.3 8.3-2.1 9.5 1 9.5 1.5 0 10.5-2.3 20.1-5 15.6-4.5 25.3-6.2 25.3-4.4 0 .6-3.8 6.4-14.1 21.2-3.3 4.7-5.5 6.8-8.9 8.3-7.6 3.5-27.3 9.9-30.3 9.9-6 0-7.9 4.2-11.2 24-2.6 16-2.7 18.7-.6 23.3 2.3 5 1.8 8.7-1.5 11.8-3.6 3.3-7.1 1.8-10.3-4.6-2.4-4.6-2.6-5.9-2.8-21-.3-24.9 3.1-45.4 10.7-65.5 5-13.3 9-28.1 8.9-33.4 0-5.1 0-5.1-1.7-2.7-.9 1.3-4 8.8-6.8 16.5-2.9 7.8-7.1 18.1-9.4 23.1-2.3 4.9-5.3 11.9-6.6 15.5-2.9 8-7.3 12.2-18 17.5-10 4.8-16 6.9-32.4 11-18.3 4.6-20.4 5.4-32.1 12.9-11.1 7.1-14.9 8.1-19 4.7-1.8-1.4-2.3-3.1-2.7-7.9-.5-7.2.8-13.1 4.8-22.2 3.2-7.3 10.5-32.9 11.5-40.5.9-7.1 2.3-10.1 5.1-11.4 3.8-1.7 5.7-1.4 10.1 1.8 7.9 5.7 10.2 16.6 6.8 32.1-.8 3.6-1.4 7.1-1.5 7.7 0 2.1 7 1.5 16.6-1.3 33.2-9.5 41.1-15.3 52.7-38.1 8.5-16.7 15.5-33.8 17.2-42.2 1.2-5.6 2-7.1 5.2-9.8 7.8-6.6 12.5-7.7 16.6-3.9zm-64.1 1.4c5.3 3.3 7.2 8.1 7.2 17.7 0 5.3-.7 9.5-1.9 12.5-1 2.5-3.7 10.2-6.1 17.1-5.2 15.5-7.2 19.4-12.1 24-11.2 10.5-15.4 9.3-17.1-5.1-1.3-10.5-.7-17.6 2.3-29.5 1.5-5.7 2.5-11.6 2.3-13.2-.5-4.8-5.9-3.7-21.3 4.1-7.1 3.7-14 6.7-15.3 6.6-2.8 0-9.9-3.5-12.9-6.3-4.7-4.3-1.4-10.5 8.2-15.5 4.6-2.4 27.5-10.4 38-13.3 9.8-2.6 23.6-2.2 28.7.9zm457.7.6c1.8 1.3 4.4 3.9 5.8 5.8 2.2 2.9 2.4 4 1.9 8.9-.9 9.6-10.1 32.3-18.1 44.9-3.3 5.2-3.4 6.8-.4 13.3l2.3 4.7-3.5 3.6c-1.9 2-7 6.1-11.4 9.2-4.4 3.1-11.1 8-14.9 10.9-8.5 6.6-11.2 7.5-13.8 4.2-1.7-2-1.9-3.7-1.6-13.4l.3-11.1 9.8-14.9c12.2-18.7 19.6-33 17.8-34.8-3.9-3.9-28.5 17.8-37.3 32.8-2.5 4.4-6.5 13.3-8.7 19.9-5 14.5-8.2 20.4-12.4 23.3-4.2 2.9-7.5 2.9-11.7 0-6.5-4.3-7.5-7.5-7.4-22.7.1-14.9 1.9-24.6 7.5-40.6 4.3-12.3 13.2-31.8 16.5-36.1 2.5-3.3 2.9-3.5 7.5-3.1 3.5.4 6.5 1.6 11 4.7 3.4 2.2 6.7 4.1 7.2 4.1s2.4-.9 4.2-2c7.2-4.4 35.6-13.9 42.1-13.9 2.7-.1 5 .7 7.3 2.3zM643.7 885c6.3 3.8 7.4 8.2 4.8 20-.2 1.4-1 5.2-1.5 8.5-3.5 19.5-8.8 39.6-17.8 67.1-8.8 26.7-11.2 31.4-13.9 27.2-1.5-2.5-.4-26.5 2.3-49.8.6-5.2 3.8-21.8 5.8-30.2 2.4-10-.9-7.9-8.4 5.2-9.3 16.2-18.5 25.2-44.7 43.8-31.9 22.5-51.2 31.5-58.9 27.4-1.1-.6-4.1-3.3-6.7-6.1-8.4-8.9-6.6-12 10.4-17.6 4.6-1.6 12-4.3 16.4-6 10.6-4.3 49.4-24.6 55.9-29.2 12.6-9 19.2-17.3 25-31.5 4.6-11.3 7-13.5 10.5-9.6 4.7 5 7-2 2.6-7.8-2.7-3.6-3.1-5.5-1.5-8.4 2.7-5 13.7-6.7 19.7-3zm313.8 5.4c1.8.8 3.9 2.4 4.5 3.6 2.1 3.9 0 4.7-12.8 5.2-11.3.4-12.2.6-26.2 6-8 3.1-19.2 7.4-25 9.6-12.1 4.7-21.4 6.8-25.3 5.8-3.3-.8-8.3-5.3-9.1-8.2-.4-1.3.1-3 1.3-4.5 1.7-2.1 2.8-2.4 10.5-2.7 7-.2 10.6-.9 20.2-4.3 30.3-10.7 52.5-14.4 61.9-10.5zm-9 28.6c5.8 2.2 3.8 8.7-6.4 20.5-3.4 3.8-6.1 7.9-6.1 8.9 0 1.7.6 1.8 6.5 1.3 14.5-1.4 29.4 7 25.4 14.4-.5 1.1-8.1 7.2-16.7 13.6-16.4 12.2-27.2 21.7-27.2 24 0 1.4 1.4 1.6 11 1.3 8-.2 20.1-2.6 25.6-5 2.3-.9 7.2-3.6 11-5.9 4.3-2.6 7.1-3.8 7.7-3.2.6.6 1.2 4.3 1.5 8.4.4 6.5.1 8-1.9 11.6-2.8 5.1-7.5 8.3-15.9 11.1-6.2 2.1-13 3.1-43.5 6.5-7.7.8-18.1 2.2-23.1 2.9-10.2 1.6-15.5 1-18.7-2.3-5.3-5.2-2.7-21.2 4.5-27.7 1.2-1.2 7.7-6 14.3-10.7 6.6-4.6 12.6-9.1 13.3-10 1.1-1.3-.2-1.5-11.2-1.8-10.5-.3-12.7-.7-14.5-2.3-2.8-2.5-2.7-7.9.2-13.6 2.2-4.6 3.1-5.2 29.6-23.9 5-3.5 9.1-7 9.1-7.7 0-.8-.3-1.4-.7-1.4-2.2 0-10.4 2.8-23.8 8.2-15.9 6.3-18.7 6.7-23.9 3.3-5.5-3.7-2.3-6.3 15.4-12.5 12.4-4.4 23.6-7.7 30.9-9.1 5.4-.9 24.1-.2 27.6 1.1zm-149 31.1c18.7 19.6 20.2 30.6 5.8 44-7.2 6.6-22.3 14.5-30.3 15.8-3 .5-10.1 1.2-15.8 1.5l-10.3.6-2.4-5.2c-4.3-9.3-2.6-19.7 5.2-30.8 7.5-10.7 32.9-36 36.1-36 1.2 0 5.9 4.1 11.7 10.1z"/><path d="M1048.2 285.5c-1.7 1.9-4.9 6-7.1 9.2-4 5.9-8.7 11.6-19.9 24.3-9.5 10.8-7.4 12.7 6.3 5.5 12.7-6.6 20.7-12.1 23.5-16.1 4.7-6.9 7.4-19.5 5.4-24.8-1-2.7-5-1.8-8.2 1.9zM1186.3 651.2c-3 3.4-9.1 12.5-9.8 14.9-1.1 3.3.8 4.4 5.4 3.1 6-1.9 7.9-4 8.5-9.6.5-5.2-.2-10.6-1.4-10.6-.3 0-1.6 1-2.7 2.2zM769.2 693.7c-11.6 14.7-12.1 21.6-1.2 15.7 5.4-2.9 10-7.5 10-10 0-2.7-3.2-9.4-4.5-9.4-.7 0-2.7 1.7-4.3 3.7zM929.1 694.2c-1.7 1.8-4.2 5.4-5.6 8-2.1 3.8-2.4 5.2-1.5 6.8 1.3 2.5 2.4 2.5 7.6.1 5.1-2.3 7.4-5.5 7.4-10.1 0-8.6-2.8-10.3-7.9-4.8zM1433.4 682.6c-4.1 4.3-10.3 14.7-11.1 18.5-.5 2.7-.3 2.9 2.6 2.9 4.4 0 10.1-3.1 14.3-7.8 4.2-4.7 5.4-8.9 3.8-13.7-1.6-4.8-5.1-4.8-9.6.1zM1160.1 857.6c-8.4 1.8-27.2 8.2-28.9 9.8-.7.7-1.5 2.4-1.7 3.9-.3 1.4-1.4 4.7-2.5 7.2-2.8 6.6-2.7 6.9 2.7 6.1 5.4-.7 15.1-5 22-9.7 7-4.8 17.3-14.9 17.3-17.1 0-2.1-.3-2.1-8.9-.2zM1120.2 894.7c-.8.3-3.1 3.2-5.3 6.6-6.3 9.7-5 12.1 4.5 8.2 10.2-4.2 12-6.1 9.6-10.6-.9-1.5-6.1-5.1-7.2-4.8-.2 0-.9.3-1.6.6zM918.3 858.9c-5.3 4.3-10.3 10.7-10.3 13.3 0 1.9 2.8 2.8 6.4 2.1 4.2-.8 10.6-7.2 11.6-11.6.9-4.4.3-7.7-1.5-7.7-.7 0-3.5 1.8-6.2 3.9zM546.9 922.8c-14.8 14.8-14.6 18.3.6 9.7 13-7.3 13.9-8.3 14-14.6 0-8.5-1.9-7.9-14.6 4.9zM164.1 870.8l-7.4 1.7-4.8 12c-8.1 20.3-8.2 24.7-.6 22 6.1-2.1 8.5-5.1 14.9-18.3 5.7-11.8 8.1-19.3 6.2-19.1-.5 0-4.2.8-8.3 1.7zM783 976.6c-12.5 12-15.3 18.4-7.5 17.1 4.6-.8 15-5.5 17-7.7 3.2-3.6 3.2-17-.1-17-.8 0-5 3.4-9.4 7.6z"/></svg>